<svg width="33" height="20" viewBox="0 0 33 20" version="1.1" xmlns="http://www.w3.org/2000/svg" xmlns:xlink="http://www.w3.org/1999/xlink">
<title>left-arrow</title>
<desc>Created using Figma</desc>
<g id="Canvas" transform="translate(-1075 -2419)">
<g id="left-arrow">
<g id="Group">
<g id="Vector">
<use xlink:href="#path0_fill" transform="matrix(-1 0 0 1 1107.68 2419)"/>
</g>
</g>
</g>
</g>
<defs>
<path id="path0_fill" d="M 30.8402 8.60457L 4.76406 8.60457L 10.9862 2.38203C 11.5313 1.83725 11.5313 0.953521 10.9862 0.408824C 10.4411 -0.136275 9.55737 -0.136275 9.01307 0.408824L 0.408824 9.01324C -0.136275 9.55801 -0.136275 10.4418 0.408824 10.9864L 9.01307 19.5913C 9.28554 19.8639 9.64263 20 9.99964 20C 10.3566 20 10.7137 19.8639 10.9862 19.5913C 11.5313 19.0465 11.5313 18.1627 10.9862 17.6181L 4.76406 11.3953L 30.8402 11.3953C 31.6108 11.3953 32.2356 10.7705 32.2356 9.99988C 32.2356 9.22929 31.6108 8.60457 30.8402 8.60457Z"/>
</defs>
</svg>
